<?xml version="1.0" standalone="no"?><!DOCTYPE svg PUBLIC "-//W3C//DTD SVG 1.1//EN" "http://www.w3.org/Graphics/SVG/1.1/DTD/svg11.dtd"><svg t="1547192295264" class="icon" style="" viewBox="0 0 1024 1024" version="1.1" xmlns="http://www.w3.org/2000/svg" p-id="4554" xmlns:xlink="http://www.w3.org/1999/xlink" width="32" height="32"><defs><style type="text/css"></style></defs><path d="M480 368.128h304L432 47.424v272.592a48.048 48.048 0 0 0 48 48.112zM896 768a47.84 47.84 0 0 0-33.936 14.064L768 876.112l-30.064-30.064a48 48 0 0 0-67.872 67.888l64 64c8.688 8.688 20.688 14.064 33.936 14.064s25.248-5.376 33.936-14.064l128-128A48 48 0 0 0 896 768z m-288 112a96 96 0 0 1 96-96c24.528 0 46.544 9.6 63.472 24.752L784 792.256v-376H480c-53.024 0-96-43.072-96-96.208V48H128a48 48 0 0 0-48 48v832a48 48 0 0 0 48 48h536.256l-28.128-28.112A95.712 95.712 0 0 1 608 880z" fill="#999" p-id="4555"></path></svg>